 <!--<svg xmlns="http://www.w3.org/2000/svg"  id="districtsvg">-->
 <svg xmlns="http://www.w3.org/2000/svg" viewBox="290 750 200 350" id="districtsvg">
     <g id="Telangana" title="Andhra Pradesh">



  <path   title="Mahbubnagar" d="M 365.55134,933.48704 C 365.12867,933.30541 363.67121,933.14466 362.31253,933.1298 C 360.95387,933.11494 359.31121,932.94104 358.6622,932.74334 C 358.0132,932.54565 356.79054,932.20471 355.9452,931.98571 C 355.09986,931.76672 353.77516,931.06399 353.00143,930.4241 C 351.74759,929.38716 351.57353,929.02044 351.40038,927.05109 C 351.29353,925.83582 351.08596,924.28177 350.93911,923.59763 C 350.48158,921.46615 350.97177,920.52196 353.09426,919.44642 L 355.03334,918.46381 L 354.3168,917.23384 C 353.6031,916.00875 353.58506,916.003 349.77753,915.78674 C 345.57395,915.54798 342.86883,914.67905 342.47601,913.44139 C 342.15984,912.44522 342.31456,912.32873 344.29003,912.07558 C 346.23948,911.82576 348.345,910.84528 349.37299,909.70859 C 350.24336,908.74619 350.64408,905.50766 350.03387,904.36748 C 349.66976,903.68714 349.77004,903.43913 350.71675,902.67841 C 351.82564,901.7874 351.82652,901.78307 351.99458,896.49562 C 352.12466,892.40298 352.04717,891.10854 351.65244,890.78095 C 351.37178,890.54802 351.14213,890.1055 351.14213,889.79758 C 351.14213,889.36734 351.43125,889.29955 352.39093,889.50475 C 353.07777,889.65162 353.85586,889.94589 354.12003,890.1587 C 354.43639,890.41355 354.76429,890.41631 355.08065,890.16679 C 355.77363,889.62021 358.54978,889.26255 359.94047,889.54069 C 361.10908,889.77441 361.13252,889.82285 361.13252,892.00511 C 361.13252,894.75204 360.89323,895.41063 359.73525,895.85089 C 359.02222,896.12198 358.82704,896.48164 358.82704,897.5244 C 358.82704,899.56142 360.14483,900.27502 364.49467,900.59352 L 368.04894,900.85378 L 368.04894,897.81782 C 368.04894,895.36369 367.90166,894.59463 367.28045,893.80489 C 366.19569,892.42584 366.29901,892.11188 368.145,891.17784 C 369.04317,890.72337 369.91632,890.11467 370.08532,889.82517 C 370.55624,889.01848 371.01365,889.19543 371.28852,890.29062 C 371.52158,891.21917 371.64067,891.26537 373.15535,891.01479 C 375.16673,890.68203 375.31492,890.5928 375.74804,889.45359 C 376.34419,887.88561 377.73172,888.23597 378.55887,890.16334 C 379.32232,891.94232 380.67248,893.60581 381.12561,893.32576 C 381.28228,893.22893 381.64619,893.4504 381.9343,893.81791 C 382.41723,894.43392 382.39813,894.44274 381.68966,893.93078 C 380.96533,893.40737 380.95697,893.41478 381.54416,894.05975 C 381.96201,894.5187 382.90233,894.79599 384.39968,894.90179 C 385.9485,895.01123 386.88433,895.29641 387.45552,895.83302 C 387.90835,896.25842 388.41011,896.47522 388.57055,896.31479 C 388.73098,896.15435 388.80461,896.2667 388.73416,896.56444 C 388.64868,896.92577 389.18105,897.25072 390.33519,897.54164 C 391.72724,897.89255 392.1413,898.19897 392.45933,899.11365 C 392.67662,899.73853 393.15211,900.80316 393.51601,901.47951 C 393.87992,902.15585 394.17764,902.81462 394.17764,902.94343 C 394.17764,903.07225 393.28574,904.12069 392.19564,905.27332 C 390.42985,907.14036 390.21678,907.54658 390.24251,908.99671 C 390.2584,909.89196 390.46173,911.11929 390.69438,911.72412 C 391.04168,912.62704 391.27085,912.77592 391.97508,912.55614 C 395.28787,911.52221 396.0264,911.46998 397.88965,912.13784 C 398.9124,912.50444 400.03945,912.82645 400.39419,912.85342 C 400.74892,912.88039 401.0083,913.04949 400.97056,913.22919 C 400.93281,913.4089 402.28523,914.29934 403.97591,915.20796 C 406.77632,916.71297 407.06968,916.9815 407.27243,918.22548 C 407.40454,919.03604 407.29296,919.95518 406.99786,920.48714 C 406.72445,920.98002 406.49461,921.6859 406.48712,922.05573 C 406.47496,922.65583 406.00457,922.72816 402.11423,922.72816 C 398.41652,922.72816 397.66068,922.83234 397.13369,923.41466 C 396.32365,924.30975 395.29257,926.78898 395.60178,927.09818 C 395.7343,927.23069 395.56126,927.33911 395.21727,927.33911 C 394.87327,927.33911 394.25951,927.69581 393.85335,928.13177 C 393.19584,928.83752 392.84665,928.89438 390.66835,928.6503 C 389.32277,928.49954 387.79591,928.0996 387.27533,927.76158 C 386.51413,927.2673 385.29002,927.1557 381.02254,927.19146 C 374.96838,927.2422 374.81047,927.31013 373.15412,930.57648 C 371.78236,933.28163 370.96019,933.84851 368.43318,933.8315 C 367.27084,933.82369 365.97401,933.66867 365.55134,933.48704 z" fill="#ffffff" stroke="#000000"/>

  <path   title="Rangareddi" d="M 364.24039,900.15536 C 360.78964,899.99316 359.09628,899.05913 359.28583,897.42252 C 359.36778,896.71503 359.65994,896.37084 360.2498,896.28693 C 361.27097,896.14166 361.43577,895.6437 361.58898,892.24071 L 361.70736,889.61106 L 360.28546,889.12223 C 359.1204,888.72171 358.49828,888.72815 356.84151,889.15792 C 354.8056,889.68603 354.01148,889.62356 352.3523,888.80479 C 351.59373,888.43046 351.36496,888.47421 350.92339,889.07808 C 350.48885,889.67237 350.2956,889.71237 349.80928,889.30876 C 348.89245,888.54786 349.10701,887.63871 350.52858,886.26086 C 351.2478,885.56376 352.12438,884.23897 352.47653,883.31689 C 353.02204,881.88851 353.43986,881.48071 355.29949,880.56164 C 356.84367,879.79848 357.5181,879.23257 357.60497,878.62716 C 357.67249,878.1565 357.99652,877.77142 358.32502,877.77142 C 358.65351,877.77142 359.60719,876.99332 360.4443,876.04232 C 361.37418,874.98592 362.29264,874.31321 362.80508,874.31321 C 363.64089,874.31321 365.69862,875.53246 367.82159,877.2856 C 368.53851,877.87763 369.23159,878.13503 369.75503,878.00366 C 370.29016,877.86934 370.72165,878.04019 371.00887,878.50011 C 371.3164,878.99254 372.49438,879.40482 374.96503,879.88471 L 378.48326,880.56807 L 380.56642,878.51076 C 381.99564,877.09931 382.58341,876.24485 382.43871,875.78896 C 382.30082,875.35448 382.55909,874.90739 383.18484,874.49739 C 383.72072,874.14626 384.19413,873.42135 384.26062,872.85004 C 384.45674,871.16519 385.86376,870.96146 389.4166,872.10346 L 392.44854,873.07803 L 392.56101,876.24776 C 392.63162,878.23733 392.88199,879.71516 393.23345,880.21695 C 393.55483,880.67577 393.79875,881.92132 393.80597,883.1403 C 393.82861,886.96541 394.43581,890.36216 395.29137,891.44983 C 396.23819,892.65351 396.33487,894.00402 395.5225,894.67823 C 395.2055,894.94132 394.94613,895.39477 394.94613,895.68589 C 394.94613,895.97702 394.64354,896.21628 394.2737,896.21758 C 393.90387,896.21888 393.09229,896.48536 392.47021,896.80975 C 391.15842,897.49381 389.67297,897.09262 388.02971,895.61046 C 387.37092,895.01626 386.34471,894.65999 384.76362,894.47657 C 382.84596,894.2541 382.22302,893.98399 381.06033,892.8708 C 380.29153,892.13473 379.34495,890.76241 378.95682,889.82121 C 378.29153,888.20792 378.17356,888.11648 376.89642,888.22406 C 375.92477,888.30592 375.43449,888.58262 375.16243,889.20273 C 374.93588,889.71911 374.44562,890.06728 373.94506,890.06728 C 373.48411,890.06728 372.82316,890.1762 372.47627,890.30931 C 372.04326,890.47547 371.78064,890.30312 371.63848,889.75953 C 371.35361,888.67016 370.47581,888.41995 369.88462,889.25958 C 369.61468,889.64299 368.65893,890.3309 367.76075,890.78828 C 365.90333,891.73414 365.67417,892.63558 366.8962,894.18914 C 367.49519,894.95063 367.66469,895.74794 367.66469,897.80402 C 367.66469,899.25486 367.53501,900.40756 367.37651,900.36557 C 367.21801,900.32358 365.80676,900.22898 364.24039,900.15536 L 364.24039,900.15536 z M 385.79926,886.7293 C 386.39201,886.16143 386.87697,885.29688 386.87697,884.80808 C 386.87697,884.30193 387.10885,883.91935 387.41561,883.91935 C 387.78869,883.91935 388.03737,883.20325 388.22463,881.58981 C 388.45817,879.57765 388.39787,879.18668 387.78205,878.72019 C 387.38992,878.42315 386.7665,878.17461 386.39667,878.16789 C 385.5819,878.15308 384.18726,879.47445 384.18726,880.26121 C 384.18726,880.57392 383.51694,881.17174 382.69766,881.5897 C 381.1228,882.39314 380.53921,883.26835 381.01662,884.11073 C 381.44915,884.87394 384.18058,887.76181 384.4699,887.76181 C 384.60832,887.76181 385.20654,887.29718 385.79927,886.72931 L 385.79926,886.7293 z" fill="#ffffff" stroke="#000000"/>

  <path   title="Medak" d="M 374.84167,879.36268 C 372.8558,878.94599 371.70868,878.50391 371.46043,878.05961 C 371.23544,877.65694 370.63164,877.38718 369.95536,877.38718 C 369.2155,877.38718 368.06256,876.80782 366.61231,875.70728 C 365.39477,874.78334 363.86549,873.91138 363.21391,873.7696 C 362.15188,873.53851 361.85366,873.70227 360.33372,875.35121 C 359.4012,876.36287 358.41607,877.13958 358.14454,877.07723 C 357.873,877.01487 357.02682,876.54037 356.2641,876.02278 C 355.50138,875.50519 354.55565,875.0817 354.16247,875.0817 C 353.24942,875.0817 353.26692,874.79182 354.41628,870.87473 C 354.94017,869.08924 355.36883,867.0688 355.36883,866.38486 C 355.36883,864.65165 355.98763,863.20631 357.10648,862.32623 C 358.22466,861.44666 358.28773,860.98624 357.42119,860.02873 C 356.855,859.4031 356.83994,859.09059 357.28626,857.23011 C 357.60016,855.92162 357.70353,854.11998 357.56173,852.42863 C 357.36221,850.04879 357.41368,849.72149 357.98738,849.72149 C 359.50081,849.72149 361.389,850.56056 362.28525,851.63138 C 363.02583,852.5162 363.61249,852.80296 364.84646,852.88333 C 365.72678,852.94066 366.41842,853.16049 366.38344,853.37182 C 366.34846,853.58316 366.49892,853.72519 366.7178,853.68745 C 366.93668,853.64971 367.14577,853.90908 367.18244,854.26382 C 367.50314,857.36589 368.5382,858.71201 370.95086,859.16463 C 371.90844,859.34427 372.65799,859.17429 373.87945,858.5005 C 375.30953,857.71162 375.55812,857.37789 375.80861,855.91062 C 376.17658,853.75504 376.31891,853.64191 377.39317,854.65113 C 378.47632,855.6687 379.09879,855.68739 380.33244,854.73941 C 381.02976,854.20356 381.464,854.10885 381.97342,854.38148 C 382.35443,854.58538 382.80507,854.66637 382.97486,854.56143 C 383.14464,854.45651 383.27075,854.74864 383.2551,855.21064 C 383.23293,855.86517 383.59263,856.17835 384.8842,856.62906 C 386.46053,857.17913 386.57351,857.16865 387.18967,856.41529 C 387.54603,855.97959 388.58729,855.04706 389.50359,854.34302 C 391.13385,853.09039 391.21072,853.07242 393.08717,853.50556 C 395.84091,854.1412 397.25161,854.08197 397.25161,853.33071 C 397.25161,852.89903 397.45394,852.79204 397.92404,852.97513 C 398.29387,853.11917 399.51823,853.42371 400.64482,853.65189 C 402.63731,854.05544 402.71829,854.12356 403.61399,856.1489 C 404.12045,857.29407 404.70967,858.12297 404.92339,857.99089 C 405.13953,857.85731 405.22264,857.9835 405.11069,858.27524 C 404.99998,858.56372 405.26134,859.11823 405.69146,859.50749 C 406.12159,859.89674 406.4735,860.51116 406.4735,860.87286 C 406.4735,861.45066 406.13939,861.50659 403.72114,861.33357 C 401.43252,861.16981 401.00448,861.22968 401.18069,861.68885 C 401.32773,862.07207 401.08568,862.26648 400.38976,862.32407 C 398.67788,862.46575 398.28794,863.21937 398.36414,866.23888 C 398.42782,868.76232 398.34108,869.09518 397.26608,870.45248 C 396.62412,871.26303 396.09887,872.11746 396.09887,872.35121 C 396.09887,873.27116 389.60553,872.23468 388.97475,871.21404 C 388.67504,870.7291 385.47239,870.7571 384.54624,871.25276 C 384.13514,871.47277 383.80301,872.05402 383.80301,872.55343 C 383.80301,873.09252 383.41594,873.70995 382.8424,874.08575 C 382.18973,874.51339 381.88178,875.06619 381.88178,875.81011 C 381.88178,876.61473 381.42557,877.32557 380.16126,878.49098 C 379.21497,879.36323 378.30719,880.05809 378.14397,880.03511 C 377.98075,880.01212 376.49471,879.70953 374.84167,879.36268 L 374.84167,879.36268 z" fill="#ffffff" stroke="#000000"/>

  <path   title="Nizamabad" d="M 369.06138,857.76276 C 368.50453,857.32475 368.04894,856.62174 368.04894,856.20052 C 368.04894,854.37653 366.2362,852.43397 364.52083,852.41975 C 363.82772,852.414 363.22994,852.04554 362.69507,851.29439 C 361.83026,850.07989 358.97967,848.88455 357.72847,849.21174 C 357.01967,849.3971 356.98524,849.25635 357.1808,846.97185 C 357.29557,845.63113 357.61295,844.27481 357.88609,843.9578 C 358.15922,843.6408 358.43946,842.77625 358.50882,842.03658 C 358.63048,840.7391 358.69582,840.68739 360.36333,840.5689 C 362.19837,840.43851 363.43799,839.64082 363.43799,838.59038 C 363.43799,838.23983 364.81767,836.6672 366.50396,835.09566 C 368.19024,833.52412 369.57352,832.02884 369.57792,831.77281 C 369.58232,831.51679 370.32079,831.12377 371.21896,830.89943 C 372.11714,830.67509 373.15225,830.3226 373.51922,830.11613 C 373.88619,829.90965 374.42698,829.74071 374.72098,829.74071 C 375.01496,829.74071 375.46007,829.49423 375.71009,829.19298 C 376.32839,828.44797 378.97231,827.16987 379.51852,827.35194 C 379.76164,827.43298 379.96055,827.72983 379.96055,828.01161 C 379.96055,828.81106 380.80592,828.90993 382.1638,828.2693 C 383.12479,827.81592 383.60379,827.77962 384.27715,828.10916 C 384.75605,828.34352 385.98682,828.64683 387.01221,828.78317 C 388.7788,829.01806 388.86632,829.08456 388.68149,830.05142 C 388.5742,830.61262 388.7048,831.50716 388.97169,832.03929 C 389.23858,832.57143 389.56367,833.56825 389.69411,834.25446 C 389.82454,834.94068 390.62734,836.38272 391.47809,837.459 C 392.32883,838.53527 393.02491,839.74776 393.02491,840.1534 C 393.02491,840.62473 392.33102,841.31789 391.10255,842.07378 C 389.97381,842.7683 389.08784,843.62458 388.95649,844.14794 C 388.74334,844.99721 389.32753,850.92688 389.79415,852.65043 C 389.96277,853.27326 389.71224,853.67387 388.73415,854.3454 C 388.02971,854.82905 387.18172,855.55799 386.84974,855.96526 C 386.2837,856.65965 386.15814,856.66897 384.83245,856.11506 C 384.05492,855.7902 383.41876,855.27718 383.41876,854.97503 C 383.41876,854.67288 382.91373,854.21648 382.29647,853.9608 C 381.30973,853.55208 381.03128,853.60157 379.99121,854.37053 L 378.80826,855.24512 L 377.73034,854.21242 C 377.13748,853.64442 376.54486,853.1797 376.4134,853.1797 C 376.00403,853.1797 374.96536,855.55768 374.96536,856.49496 C 374.96536,858.38597 370.94987,859.24825 369.06137,857.76276 L 369.06138,857.76276 z" fill="#ffffff" stroke="#000000"/>

  <path   title="Adilabad" d="M 425.10942,838.96261 C 424.502,838.32861 423.79259,837.80987 423.53295,837.80987 C 423.27332,837.80987 422.42235,837.13603 421.64192,836.31245 C 420.86149,835.48886 419.53965,834.50689 418.70449,834.13029 C 417.40666,833.54505 416.99398,833.515 415.86434,833.92348 C 414.8066,834.30596 414.27408,834.30429 413.1978,833.9151 C 412.45813,833.64763 411.85294,833.29061 411.85294,833.12173 C 411.85294,832.95286 411.5155,832.81468 411.10307,832.81468 C 410.59283,832.81468 409.78156,831.92441 408.56445,830.0289 C 405.66573,825.51444 405.66513,825.51401 402.15456,825.51401 C 400.48682,825.51401 398.75035,825.71308 398.29572,825.95639 C 395.03174,827.70323 386.12725,828.79872 384.49355,827.65444 C 383.41462,826.89872 382.75487,826.8915 382.01901,827.62736 C 381.28811,828.35827 380.3448,828.37286 380.3448,827.65326 C 380.3448,826.34835 377.57165,826.90329 375.49973,828.62283 C 374.8264,829.18166 371.23101,830.47812 370.30316,830.49666 C 369.95797,830.50356 369.58718,830.17126 369.47916,829.75821 C 369.36821,829.33396 368.80541,828.89028 368.18555,828.73844 C 366.73331,828.38269 366.52481,827.99484 366.51784,825.63624 C 366.51264,823.87955 366.64171,823.55272 367.61399,822.86039 C 368.40613,822.29635 368.78776,821.62713 368.97109,820.48063 C 369.45472,817.45615 369.65917,817.30859 372.98946,817.5803 C 374.60453,817.71208 376.38456,817.92534 376.94504,818.05422 C 378.16978,818.33585 379.43907,817.25126 379.78277,815.62946 C 379.90708,815.04291 380.0962,814.14001 380.20304,813.623 C 380.30989,813.106 380.99069,812.12337 381.71592,811.43939 C 382.50403,810.69611 383.03452,809.8259 383.03452,809.27636 C 383.03452,808.77067 383.48278,807.93773 384.03066,807.42538 C 384.85009,806.65909 384.99358,806.24332 384.83954,805.08149 C 384.73089,804.26196 384.87726,803.23548 385.18826,802.63603 C 385.80458,801.4481 385.87457,800.46713 385.38047,799.94246 C 384.76524,799.28917 384.46003,797.07983 384.98501,797.07983 C 385.77288,797.07983 388.05349,799.01357 388.42831,799.99944 C 388.72717,800.78548 389.03611,800.92229 390.51228,800.92229 C 392.20072,800.92229 393.71261,801.18146 397.25161,802.07756 C 398.20262,802.31836 399.66468,802.54599 400.50064,802.58339 C 401.85915,802.64418 402.04581,802.77381 402.25833,803.80413 C 402.3891,804.43814 402.91552,805.60167 403.42813,806.38975 C 404.2197,807.6067 404.95938,808.06413 408.33653,809.42514 C 412.7049,811.18561 412.35199,811.24603 413.80845,808.48839 L 414.5815,807.02471 L 415.97505,808.24827 C 417.71849,809.77903 419.31082,810.45041 422.75386,811.10645 C 425.66324,811.66081 426.50878,811.47827 427.64548,810.05041 C 428.20669,809.34546 428.39104,809.32087 429.75883,809.76854 C 431.68167,810.39788 433.55125,811.93868 434.94969,814.04652 C 436.47302,816.3426 436.41899,818.15243 434.71556,821.89036 C 433.19984,825.21638 433.0352,826.98773 434.10048,828.50747 C 434.50188,829.08009 434.92599,830.45637 435.04299,831.56588 C 435.28092,833.82217 435.06682,833.96835 432.75085,833.13088 C 431.14601,832.55057 430.29673,833.17254 430.29673,834.92815 C 430.29673,836.67853 429.35709,838.7346 428.21523,839.48278 C 426.86779,840.36566 426.37445,840.28302 425.10942,838.96261 z" fill="#ffffff" stroke="#000000"/>

  <path   title="Karimnagar" d="M 408.13687,862.34699 C 407.67803,862.11597 407.1913,861.48341 407.05523,860.9413 C 406.91916,860.39918 406.35957,859.42528 405.81169,858.77708 C 405.26379,858.12888 404.42019,856.70778 403.937,855.61909 L 403.05847,853.63966 L 400.11253,852.94515 C 397.24635,852.26946 397.15233,852.27014 396.6403,852.97039 C 396.17442,853.6075 395.94261,853.63877 394.62094,853.24279 C 393.79974,852.99676 392.51191,852.79545 391.75908,852.79545 C 390.42005,852.79545 390.38071,852.75161 389.94904,850.77816 C 389.70635,849.66866 389.56427,847.56114 389.6333,846.0948 L 389.75882,843.42872 L 391.48792,842.42202 C 393.919,841.00662 394.03005,839.64543 391.9189,837.13905 C 390.43403,835.37617 389.71343,833.52897 389.29516,830.41314 C 389.10516,828.99775 389.12457,828.97201 390.39089,828.96 C 391.09992,828.95328 392.01569,828.69391 392.42592,828.38364 C 392.83616,828.07335 393.71511,827.81949 394.37916,827.81949 C 395.04322,827.81949 395.70128,827.70475 395.84152,827.56451 C 396.51815,826.88787 400.33989,825.89826 402.27629,825.89826 C 405.01383,825.89826 405.84769,826.51875 408.21542,830.31763 C 410.47739,833.9468 411.38512,834.45174 415.75701,834.51279 L 419.08471,834.55926 L 421.21143,836.47275 C 425.9881,840.77047 426.71262,841.10334 428.59947,839.86702 C 429.75512,839.10982 430.68098,837.05762 430.68098,835.25329 C 430.68098,833.61287 431.31026,833.34379 433.57957,834.01384 C 434.78595,834.37003 435.3687,834.76689 435.47477,835.30448 C 435.92554,837.58882 436.14643,838.06326 437.06882,838.72803 C 437.78653,839.2453 439.04153,839.52232 441.43342,839.69146 C 444.62949,839.91747 444.86704,839.9979 446.38244,841.36697 C 447.25793,842.15792 448.14666,842.80507 448.35739,842.80507 C 448.56812,842.80507 448.74053,842.97798 448.74053,843.18931 C 448.74053,843.40065 448.0572,843.57356 447.22203,843.57356 L 445.70352,843.57356 L 444.17299,846.83965 C 442.72,849.94024 442.16154,850.57833 441.63976,849.73407 C 441.51342,849.52966 440.93487,849.45745 440.3541,849.57361 C 439.29368,849.78569 438.85784,849.33 438.23551,847.35863 C 438.00657,846.63344 435.53892,845.70203 434.69971,846.02407 C 434.39143,846.14237 434.13919,846.67686 434.13919,847.21183 C 434.13919,848.3155 433.54522,848.46155 432.58623,847.59367 C 432.05714,847.11487 431.74754,847.08751 430.95334,847.44937 C 430.12432,847.8271 429.79668,847.77012 428.82691,847.07959 C 427.33007,846.01375 426.30977,846.04976 424.27862,847.24009 C 422.52338,848.26874 422.35208,848.53956 423.02877,849.21624 C 423.32854,849.51601 423.27883,849.95591 422.85192,850.78146 C 422.38814,851.67828 422.30935,852.65557 422.49204,855.24443 L 422.72596,858.55914 L 421.61223,858.57476 C 420.26171,858.59369 417.773,860.5693 418.20965,861.27581 C 418.39718,861.57922 418.34587,861.6542 418.06819,861.48258 C 417.82857,861.33449 417.26126,861.41201 416.8075,861.65485 C 416.35376,861.8977 415.26949,862.16055 414.39803,862.23899 C 413.52656,862.31743 411.949,862.46832 410.89233,862.57431 C 409.83565,862.68029 408.59569,862.578 408.13686,862.34699 L 408.13687,862.34699 z" fill="#ffffff" stroke="#000000"/>

  <path   title="Warangal" d="M 428.43718,886.01462 C 428.19192,885.47634 427.98576,884.74147 427.97904,884.38158 C 427.95912,883.31507 427.11867,882.52934 425.69635,882.24752 C 424.96249,882.10211 423.83856,881.48625 423.19875,880.87895 C 422.50084,880.2165 421.42057,879.67737 420.49847,879.53131 C 419.65313,879.3974 418.09693,879.1573 417.04026,878.99774 C 415.98358,878.83818 414.32957,878.32407 413.36467,877.85528 C 412.39978,877.38648 411.3516,877.00293 411.03539,877.00293 C 410.7192,877.00293 410.0702,876.47505 409.5932,875.82987 C 409.11619,875.18468 408.32465,874.47397 407.8342,874.25051 C 407.34377,874.02706 406.76393,873.45232 406.54568,872.97332 C 406.15217,872.10968 402.95392,869.70226 402.20009,869.70226 C 401.98427,869.70226 401.5483,869.4429 401.23129,869.12589 C 400.9143,868.80889 400.34565,868.54953 399.96764,868.54953 C 399.41591,868.54953 399.23667,868.12633 399.0589,866.40393 C 398.79827,863.87858 398.99764,863.17009 399.96892,863.17009 C 400.36153,863.17009 400.87984,862.80189 401.12068,862.35187 C 401.51142,861.62175 401.79683,861.55525 403.77143,861.7343 C 404.98852,861.84466 406.74278,862.26092 407.66982,862.65931 C 409.01671,863.23813 409.74134,863.32009 411.27657,863.06724 C 412.33325,862.89321 413.88944,862.70704 414.73478,862.65354 C 416.52165,862.54045 417.61096,862.00532 419.44788,860.33818 C 420.17671,859.67671 421.14787,859.12652 421.606,859.11553 C 422.06412,859.10455 422.65078,858.96466 422.90964,858.80468 C 423.50845,858.43459 423.52612,855.07286 422.93606,853.77781 C 422.57613,852.98785 422.62005,852.51838 423.16749,851.30438 C 423.53911,850.48027 423.73917,849.47835 423.61208,849.0779 C 423.10559,847.48209 426.92743,846.4064 428.69787,847.64647 C 429.27273,848.04912 429.99812,848.1861 430.80066,848.04356 C 431.58148,847.90487 432.29636,848.03033 432.77171,848.38947 C 433.18195,848.69941 433.83819,848.953 434.23004,848.953 C 434.83617,848.953 434.90485,848.75229 434.69021,847.60814 C 434.4029,846.07666 434.64085,845.98093 436.64913,846.82004 C 437.4934,847.1728 437.98165,847.63902 437.98165,848.09244 C 437.98165,849.20381 439.44498,850.56514 440.33573,850.28243 C 440.75194,850.15033 441.34356,850.25061 441.65042,850.50528 C 442.48007,851.19383 443.08228,850.51766 444.55585,847.24306 C 445.75027,844.58879 445.91931,844.39589 447.19029,844.23683 C 448.89685,844.02326 448.99367,844.11775 448.47534,845.49096 C 448.1025,846.47871 448.22419,846.94073 449.50877,849.41481 C 450.30958,850.95717 451.07909,852.76204 451.21878,853.42566 C 451.38619,854.22096 452.12038,855.17832 453.37273,856.23431 C 455.21503,857.78775 455.2727,857.89903 455.2727,859.89943 C 455.2727,862.98404 454.16874,863.81115 451.73287,862.55151 C 450.18975,861.75353 447.97231,862.03847 446.46689,863.22817 C 445.83877,863.72456 445.31527,864.44573 445.30357,864.83077 C 445.29187,865.21581 444.8304,866.30198 444.27805,867.24448 C 443.39591,868.74974 443.32014,869.14075 443.65497,870.45984 C 444.18593,872.55171 443.14952,873.54472 440.43527,873.54472 C 438.1576,873.54472 437.5974,873.99982 437.5974,875.85019 C 437.5974,876.611 437.41093,877.41995 437.18302,877.64786 C 436.63548,878.19539 438.58098,882.14803 439.20743,881.76086 C 439.45916,881.60528 439.53053,881.66801 439.37961,881.9122 C 439.23785,882.14159 439.29758,882.43788 439.51236,882.57062 C 440.21866,883.00713 439.92111,884.14235 438.82517,885.19232 C 437.58844,886.3772 436.17512,886.52857 435.46146,885.55259 C 435.13041,885.09985 434.40317,884.86507 433.23421,884.83354 C 431.79114,884.79463 431.32029,884.97275 430.44148,885.89003 C 429.14906,887.23902 428.9993,887.24833 428.43718,886.01462 L 428.43718,886.01462 z" fill="#ffffff" stroke="#000000"/>

  <path   title="Khammam" d="M 450.04744,904.96228 C 449.60388,904.6951 447.88555,902.95868 446.22892,901.10357 C 444.57228,899.24846 442.86026,897.65109 442.42442,897.55386 C 441.98858,897.45662 440.57012,897.41825 439.27229,897.46857 L 436.91259,897.56007 L 434.60428,895.06248 C 432.93346,893.25468 432.23126,892.16947 432.06177,891.1332 C 431.90149,890.15337 431.46474,889.43325 430.67792,888.85152 C 430.04561,888.38403 429.52824,887.85284 429.52824,887.67112 C 429.52824,886.96898 431.65994,885.46394 432.41328,885.63419 C 432.83771,885.73012 433.434,885.65469 433.73838,885.46657 C 434.12702,885.22638 434.55998,885.41391 435.19254,886.09646 C 435.90037,886.86021 436.31609,887.01332 437.13353,886.81132 C 439.59748,886.20244 441.17356,883.21214 439.68267,881.97482 C 439.35023,881.69891 438.73188,880.79429 438.30858,879.96456 C 437.69562,878.76303 437.61995,878.2494 437.93689,877.44125 C 438.15575,876.88317 438.38505,875.90783 438.44642,875.27382 C 438.55585,874.14343 438.59538,874.12331 440.48541,874.23594 C 442.20398,874.33835 442.53382,874.22449 443.52959,873.18513 C 444.57489,872.09406 444.61824,871.92784 444.2069,870.58758 C 443.81453,869.3091 443.86917,868.98209 444.717,867.53538 C 445.23927,866.64422 445.66656,865.58934 445.66656,865.19122 C 445.66656,864.37855 447.28373,863.0485 448.74053,862.66301 C 449.29627,862.51594 450.44675,862.67371 451.47021,863.03731 C 454.60386,864.15059 456.04119,863.0009 456.04119,859.38108 C 456.04119,858.21642 455.72593,857.71882 453.92784,856.04542 C 452.7655,854.96367 451.81449,853.82398 451.81449,853.51277 C 451.81449,853.20155 451.13708,851.54613 450.30914,849.83404 C 449.05649,847.24375 448.83968,846.45348 449.01764,845.12672 C 449.16007,844.06475 449.39249,843.59407 449.7136,843.71729 C 449.97876,843.81904 450.59771,843.47437 451.08906,842.95135 C 451.72952,842.26962 452.30869,842.03273 453.13489,842.11455 C 454.09976,842.21012 454.43893,842.54628 455.21847,844.17963 C 455.73294,845.2576 456.70626,846.512 457.39366,846.98302 C 459.5044,848.42931 460.86491,853.0964 459.90884,855.61104 C 459.12025,857.68519 460.58177,859.13794 462.45074,858.1377 C 463.18886,857.74267 463.54723,857.73404 464.12885,858.09727 C 465.15339,858.73711 466.03548,858.67471 466.88934,857.90199 C 467.51576,857.33508 467.66422,857.32189 467.97038,857.80593 C 468.44039,858.54897 468.43151,859.60815 467.95281,859.904 C 467.46998,860.2024 467.44409,863.8163 467.92266,864.11207 C 468.11742,864.23243 468.3971,865.49624 468.54419,866.92052 C 468.92989,870.6553 469.31516,870.96939 473.12847,870.65778 C 475.13902,870.49349 476.61572,870.56083 477.36683,870.85109 C 479.28148,871.59098 487.29639,870.27593 489.17549,868.91357 C 489.75287,868.49496 491.0497,868.04494 492.05733,867.91351 C 493.06496,867.78209 494.21784,867.50568 494.61928,867.29928 C 495.29018,866.95433 495.3301,867.04152 495.1132,868.3781 C 494.86365,869.91585 494.48233,870.32538 492.92878,870.72408 C 492.40044,870.85967 491.40019,871.46333 490.70599,872.06554 C 490.0118,872.66776 489.20677,873.16047 488.91704,873.16047 C 488.39588,873.16047 486.04411,876.36496 485.97821,877.16487 C 485.95944,877.3928 485.97022,878.36237 486.00219,879.31946 C 486.05375,880.86297 485.8761,881.26461 484.43018,882.87373 C 482.96446,884.50487 482.63261,884.68784 481.14011,884.68784 C 480.22714,884.68784 479.48018,884.8491 479.48018,885.04619 C 479.48018,885.40251 479.09843,885.55482 477.07864,886.00431 C 476.49747,886.13364 476.02197,886.48224 476.02197,886.77896 C 476.02197,887.07567 475.48993,887.85048 474.83967,888.50074 C 473.6974,889.64301 473.54214,889.68304 470.25374,889.68304 C 465.62732,889.68304 465.1452,889.92141 463.67554,892.93561 C 462.39983,895.55199 461.82694,895.89685 460.20138,895.02688 C 459.63405,894.72326 459.30068,894.72325 458.99706,895.02688 C 458.29147,895.73248 457.62561,895.50029 457.02523,894.33929 C 456.18374,892.71202 454.09772,892.39116 452.45725,893.63665 C 451.78673,894.14574 450.60708,894.67938 449.83581,894.82253 C 448.14799,895.13581 447.7401,895.57604 447.38699,897.46563 C 447.12671,898.85836 447.16707,898.92891 448.5559,899.5092 C 449.57629,899.93554 450.11371,899.99092 450.40492,899.69971 C 451.04855,899.05608 452.39912,899.21762 453.13042,900.0257 C 453.67394,900.6263 453.71446,900.9164 453.34992,901.59755 C 453.00768,902.23703 453.01263,902.69783 453.37102,903.56306 C 453.6285,904.18467 453.75085,904.78156 453.64292,904.88949 C 453.1744,905.35803 450.78472,905.4064 450.04743,904.96228 L 450.04744,904.96228 z" fill="#ffffff" stroke="#000000"/>

  <path   title="Nalgonda" d="M 405.89713,915.67755 C 397.41381,910.73531 396.56423,910.49136 392.35932,911.79037 C 391.66421,912.00511 391.42748,911.86034 391.11052,911.02668 C 390.3009,908.89721 390.61571,907.7717 392.64066,905.55608 C 393.69734,904.3999 394.56189,903.18883 394.56189,902.8648 C 394.56189,902.54077 394.19433,901.56047 393.74509,900.68635 C 392.39503,898.05945 392.25641,897.77027 392.25641,897.58071 C 392.25641,897.48066 392.94806,897.19158 393.7934,896.93831 C 394.63874,896.68504 395.33038,896.26699 395.33038,896.00932 C 395.33038,895.75164 395.58975,895.32557 395.90675,895.06248 C 396.75141,894.36147 396.63321,892.00568 395.70373,891.0163 C 395.04498,890.31511 394.88774,889.47855 394.68786,885.6121 C 394.50375,882.05072 394.2934,880.81161 393.73813,880.01758 C 393.25709,879.32969 393.02662,878.32895 393.03015,876.94361 C 393.03869,873.59657 393.26473,873.16047 394.99095,873.16047 C 395.81164,873.16047 396.48312,872.98029 396.48312,872.76007 C 396.48312,872.1614 398.91817,868.96604 399.38758,868.94876 C 399.61134,868.94052 400.13009,869.18764 400.54032,869.49792 C 400.95053,869.8082 401.49366,870.06757 401.74723,870.07429 C 402.61061,870.09717 405.75723,872.47931 406.09396,873.36497 C 406.27849,873.85033 406.78532,874.36039 407.22024,874.49843 C 407.65515,874.63647 408.46368,875.3429 409.01696,876.06829 C 409.6209,876.86011 410.35788,877.38718 410.86109,877.38718 C 411.32207,877.38718 411.90118,877.58911 412.148,877.83593 C 412.93855,878.62648 415.41187,879.36325 418.85632,879.83424 C 421.80208,880.23705 422.36436,880.44297 423.48556,881.52967 C 424.18745,882.20999 425.08573,882.76662 425.4817,882.76662 C 426.44006,882.76662 427.60635,883.85823 427.3531,884.51818 C 427.24196,884.80782 427.51298,885.55315 427.95538,886.17444 C 428.39779,886.79574 428.75975,887.4273 428.75975,887.5779 C 428.75975,887.72851 429.45139,888.52295 430.29673,889.34333 C 431.28225,890.29974 431.83372,891.17958 431.83372,891.79552 C 431.83372,892.39873 432.4151,893.3552 433.39634,894.3663 C 434.25579,895.25189 435.29451,896.4477 435.70462,897.02365 L 436.45027,898.07082 L 435.46036,899.24727 L 434.47043,900.42371 L 435.45755,901.71788 C 436.00046,902.42968 436.44466,903.38128 436.44466,903.83256 C 436.44466,905.16016 435.34389,907.52527 434.4728,908.06928 C 433.76806,908.5094 433.35652,908.42043 431.21079,907.36409 C 428.51199,906.03548 428.41757,906.04076 424.72517,907.72688 C 423.45716,908.30591 421.81451,909.043 421.07484,909.36486 C 420.33517,909.68671 417.76248,910.1424 415.35775,910.37751 C 410.47709,910.85468 410.64424,910.75345 408.76375,914.37082 C 408.13202,915.586 407.57444,916.5786 407.52465,916.5766 C 407.47486,916.5746 406.74248,916.17002 405.89713,915.67754 L 405.89713,915.67755 z" fill="#ffffff" stroke="#000000"/>

  <path   title="Hyderabad" d="M 382.74633,885.47316 C 382.05949,884.67285 381.49754,883.73999 381.49754,883.40014 C 381.49754,883.06029 382.18641,882.4308 383.02837,882.00126 C 383.99895,881.50611 384.64794,880.86673 384.80168,880.25421 C 385.13007,878.94575 386.24502,878.3787 387.25237,879.00781 C 387.6799,879.27481 388.02971,879.71376 388.02971,879.98325 C 388.02971,880.78043 387.09544,883.53511 386.82507,883.53511 C 386.68811,883.53511 386.45737,884.01061 386.31233,884.59178 C 386.01207,885.79484 385.04008,887.00904 384.41589,886.96079 C 384.18447,886.94291 383.43317,886.27347 382.74633,885.47316 L 382.74633,885.47316 z" fill="#ffffff" stroke="#000000"/>


 </g>

 </svg>