<?xml version="1.0" encoding="utf-8"?>
<!-- Generator: Adobe Illustrator 15.0.0, SVG Export Plug-In . SVG Version: 6.00 Build 0)  -->
<!DOCTYPE svg PUBLIC "-//W3C//DTD SVG 1.1//EN" "http://www.w3.org/Graphics/SVG/1.1/DTD/svg11.dtd">
<svg version="1.1" id="Layer_1" xmlns="http://www.w3.org/2000/svg" xmlns:xlink="http://www.w3.org/1999/xlink" x="0px" y="0px"
	 width="26px" height="26px" viewBox="0 0 26 26" enable-background="new 0 0 26 26" xml:space="preserve">
<g>
	<path d="M13,4.706c-4.571,0-8.29,3.718-8.29,8.29s3.718,8.29,8.29,8.29s8.29-3.719,8.29-8.29S17.571,4.706,13,4.706z M13,20.514
		c-4.146,0-7.519-3.373-7.519-7.519c0-4.146,3.373-7.519,7.519-7.519s7.519,3.373,7.519,7.519
		C20.519,17.141,17.146,20.514,13,20.514z"/>
	<path d="M19.855,11.964c-0.546,0-1.971,0-2.703,0c-0.238,0-0.393,0-0.393,0s0-0.569,0-0.927c0-0.357-0.268-0.088-0.268-0.088
		s-2.012,1.516-2.223,1.727c-0.154,0.153,0.017,0.3,0.017,0.3l2.153,1.781c0,0,0.257,0.271,0.257-0.022c0-0.294,0-1.004,0-1.004
		s0.173,0,0.438,0c0.757,0,2.135,0,2.696,0c0,0,0.152,0.039,0.152-0.191c0-0.232,0-1.248,0-1.413
		C19.982,11.96,19.855,11.964,19.855,11.964z"/>
	<path d="M11.776,12.676c-0.211-0.211-2.224-1.727-2.224-1.727s-0.267-0.269-0.267,0.088c0,0.357,0,0.927,0,0.927s-0.155,0-0.393,0
		c-0.732,0-2.158,0-2.703,0c0,0-0.127-0.004-0.127,0.162c0,0.165,0,1.181,0,1.413c0,0.23,0.152,0.191,0.152,0.191
		c0.561,0,1.939,0,2.696,0c0.265,0,0.438,0,0.438,0s0,0.71,0,1.004c0,0.293,0.256,0.022,0.256,0.022l2.153-1.781
		C11.759,12.976,11.931,12.829,11.776,12.676z"/>
	<path d="M13.21,14.211c-0.152-0.153-0.299,0.018-0.299,0.018l-1.781,2.153c0,0-0.271,0.256,0.022,0.256c0.294,0,1.004,0,1.004,0
		s0,0.173,0,0.438c0,0.757,0,2.136,0,2.696c0,0-0.04,0.152,0.191,0.152c0.232,0,1.248,0,1.413,0c0.166,0,0.162-0.127,0.162-0.127
		c0-0.545,0-1.971,0-2.702c0-0.238,0-0.394,0-0.394s0.569,0,0.927,0c0.356,0,0.088-0.267,0.088-0.267S13.421,14.422,13.21,14.211z"
		/>
	<path d="M11.13,9.599l1.781,2.153c0,0,0.146,0.172,0.299,0.018c0.211-0.211,1.728-2.223,1.728-2.223s0.269-0.267-0.088-0.267
		c-0.357,0-0.927,0-0.927,0s0-0.155,0-0.393c0-0.732,0-2.157,0-2.703c0,0,0.004-0.127-0.162-0.127c-0.165,0-1.181,0-1.413,0
		c-0.231,0-0.191,0.152-0.191,0.152c0,0.561,0,1.939,0,2.696c0,0.265,0,0.438,0,0.438s-0.71,0-1.004,0
		C10.859,9.343,11.13,9.599,11.13,9.599z"/>
</g>
</svg>
